<?xml version="1.0" encoding="utf-8"?>
<!-- Generator: Adobe Illustrator 27.0.0, SVG Export Plug-In . SVG Version: 6.00 Build 0)  -->
<svg version="1.1" id="Ebene_1" xmlns="http://www.w3.org/2000/svg" xmlns:xlink="http://www.w3.org/1999/xlink" x="0px" y="0px"
	 viewBox="0 0 588 162.3" style="enable-background:new 0 0 588 162.3;" xml:space="preserve">
<style type="text/css">
	.st0{fill:#071317;}
	.st1{fill:url(#Verlauf_x5F_BASE_00000170271690263278890160000007186659594580934826_);}
	.st2{opacity:0.46;fill:url(#Verlauf_x5F_02_00000041270088198636998700000009604219747682911108_);}
	.st3{filter:url(#Adobe_OpacityMaskFilter);}
	.st4{fill:url(#SVGID_1_);}
	
		.st5{mask:url(#Verlauf_x5F_01_00000145033719981078555180000011716510017655422082_);fill:url(#Verlauf_x5F_01_00000013162073601461772660000017446696960132046217_);}
	.st6{opacity:0.85;fill:url(#Schatten_00000056421677534108846050000005390583297035303310_);}
	.st7{fill:#181716;}
</style>
<g>
	<path id="Quentic_00000100366071105672340620000017373866287025334696_" class="st0" d="M311.5,41.7v50c0,4.4-1.7,6.7-4.3,8
		c-7.7,3.3-19.2,3.9-27.7,3.9c-14.3,0-19.6-3.4-21.5-8.5c-1.4-3.4-1.7-8.6-1.7-14.2V41.7c0-1.9,0.6-3.3,2.9-3.3h8.3
		c2,0,2.9,1.3,2.9,3.3v37.4c0,3.3,0.1,6.6,0.9,8.2c1.2,2.9,4.3,4.2,10.6,4.2c6.1,0,9.8-0.5,12.1-1.3c0.8-0.3,1.8-0.8,2.4-1.5
		c0.6-0.6,0.9-2,0.9-3.7V41.7c0-1.9,0.9-3.3,3.1-3.3h8.2C310.5,38.4,311.5,39.6,311.5,41.7z M380.7,69.7c0,2-0.3,3.4-1.1,4.1
		c-0.6,0.5-1.7,0.8-2.8,0.8h-37c0.1,14.4,6.6,17.2,17.6,17.2c6.6,0,10.7-0.6,14.5-1.6c1.1-0.3,2.4-0.6,3.6-0.6
		c1.3,0,2.2,0.8,2.5,1.8c0.6,1.5,1.3,4.7,1.3,6.3c0,1.3-0.5,2.2-2,2.8c-5.9,2.5-14.2,3.3-21.5,3.3c-22.6,0-30.5-10.3-30.5-33
		c0-24.2,10.2-33.7,30-33.7C378.9,36.9,380.7,50.2,380.7,69.7z M367.3,61.4c0-8.5-2.4-13.3-12.7-13.3c-10.7,0-14.4,5.7-14.7,16h27.3
		C367.3,63.3,367.3,62.2,367.3,61.4z M429.9,37c-9.4,0-23.2,1.8-31.2,5.3c-2.7,1.1-4.3,3.4-4.3,7.7V99c0,2.2,0.9,3.3,2.9,3.3h8.2
		c2,0,3.1-1.3,3.1-3.3V56.3c0-1.5,0.3-2.8,0.8-3.4c0.6-0.8,1.7-1.3,2.4-1.5c2.2-0.9,6.8-2.2,13.5-2.2c6.1,0,8.5,1.1,9.4,4.1
		c0.5,1.6,0.8,4.6,0.8,7.1V99c0,2,0.9,3.3,2.9,3.3h8.3c2.2,0,2.9-1.3,2.9-3.3V57.3c0-4.8-0.1-9.2-1.3-12.4
		C446.4,40,441.9,37,429.9,37z M526.5,42.8c0-2.7-1.4-4.1-4-4.1l-38.8,0V25.1c0-2.5-0.9-3.7-2.8-3.7h-7.6c-1.9,0-2.8,1.4-2.9,3.5
		c-0.4,9.1-0.5,13.7-0.5,13.7h-7.3c-2.2,0-3.2,1.4-3.2,3.2v5.7c0,2,1.3,3,2.9,3h7.3v25.8c0,10,0.8,15.7,4.2,19.9
		c4.3,5.3,11,6.7,23.5,6.7c2.2,0,3.3-0.9,3.6-2.8c0.1-1.6,0.2-4.6,0.2-6c0-1.9-0.9-2.9-2.8-3c-6.4-0.4-10.6-1.4-12.4-3.8
		c-1.5-2-2.2-4.9-2.2-10.5V50.6h28.7V99c0,2.3,1,3.3,2.9,3.3h8.2c2,0,3.1-1.1,3.1-3.3c0-3.5,0-6.9,0-10.4c0-7.1,0-14.1,0-21.2
		C526.5,59.2,526.6,51,526.5,42.8z M586.8,91.7c-0.4-1.1-1.1-1.8-2.2-1.8c-1,0-2.7,0.4-3.7,0.6c-3.7,0.8-7.1,1.1-12,1.1
		c-12.4,0-15.4-7.2-15.4-21.5c0-12.9,2.3-21.1,16.4-21.1c3.9,0,7.1,0.4,9.7,0.9c1.1,0.1,2.8,0.5,3.8,0.5c1.2,0,1.9-0.6,2.3-1.9
		c0.5-1.9,1.3-6,1.3-7.2c0-1.3-0.6-2.3-2.2-2.8c-4-1.1-9.4-1.6-15-1.6c-22.6,0-30.6,10.9-30.6,34.4c0,24.7,10.2,32.3,28.2,32.3
		c6.1,0,12.9-0.6,18.5-2.7c1.5-0.5,2.2-1.4,2.2-3C588.1,96.7,587.3,93.6,586.8,91.7z M244.7,110.4c1.3,1.3,1.1,3.3-0.1,4.4
		c-1.3,1.3-2.9,2.8-4.6,4.5c-0.9,1-3.1,2.1-5,0.4l-16.1-15.4c-3.8,1.2-10.7,1.8-15,1.8c-25.4,0-37.7-9.7-37.7-47.2
		c0-38,16.5-46.1,38.5-46.1c25.2,0,37.4,6.7,37.5,45.9c0,20.6-3.2,30.4-8.6,37.4C233.3,96.6,244.7,110.4,244.7,110.4z M227,59.1
		c0-28.6-6.3-33.7-22.8-33.7c-14.7,0-22.9,5.9-22.9,33.6c0,29.5,7.8,34.6,22.7,34.6C218.4,93.6,227,89,227,59.1z M519.4,13.1
		c-4.4,0-7.2,2.3-7.2,7.7c0,5.9,3,7.5,7.2,7.5c4.8,0,7.3-2.1,7.3-7.6C526.7,14.9,523.9,13.1,519.4,13.1z"/>
	<g id="Signet_00000090285382287678039590000005965668200096917644_">
		
			<linearGradient id="Verlauf_x5F_BASE_00000134247795704224649560000004110811738019081869_" gradientUnits="userSpaceOnUse" x1="46.5581" y1="125.0861" x2="80.4385" y2="-26.043">
			<stop  offset="7.368685e-02" style="stop-color:#76C8D9"/>
			<stop  offset="0.4431" style="stop-color:#58B989"/>
			<stop  offset="0.8125" style="stop-color:#39A936"/>
		</linearGradient>
		
			<path id="Verlauf_x5F_BASE_00000052068790466545180030000000957898077460039564_" style="fill:url(#Verlauf_x5F_BASE_00000134247795704224649560000004110811738019081869_);" d="
			M100.4,16.7C78-5.6,41.6-5.6,19.2,16.7c0,0,0,0,0,0l0,0l0,0l0,0c-25.7,25.6-25.7,66.9,0,92.5c1.6,1.6,3.3,3.1,5,4.5
			c0.4,0.3,0.9,0.6,1.3,0.9c1.3,1,2.7,2,4,2.9c0.8,0.5,1.6,0.9,2.4,1.4c1.1,0.6,2.1,1.3,3.2,1.9c1.2,0.6,2.5,1.2,3.7,1.7
			c0.7,0.3,1.4,0.7,2.1,1c1.4,0.6,2.9,1.1,4.4,1.5c0.5,0.2,1.1,0.4,1.6,0.6c1.8,0.5,3.6,0.9,5.4,1.3c0.3,0.1,0.5,0.1,0.8,0.2
			c1.8,0.4,3.7,0.6,5.5,0.8c0.3,0,0.5,0.1,0.8,0.1c18.9,1.8,38.4-4.5,52.9-18.9l-11.9-11.8C122.8,75.1,122.8,39,100.4,16.7z
			 M90.8,87.8L65.8,63L40,88.6c-0.4-0.4-0.8-0.7-1.2-1.1c-14.3-14.2-14.5-37.3-0.4-51.7l0,0c0.1-0.1,0.3-0.3,0.4-0.4
			C53.2,21,76.7,21,91.1,35.4c14.5,14.4,14.5,37.7,0,52.1C91,87.6,90.9,87.7,90.8,87.8z"/>
		
			<linearGradient id="Verlauf_x5F_02_00000068645783328393213250000010072828881060829098_" gradientUnits="userSpaceOnUse" x1="118.655" y1="109.8181" x2="14.5218" y2="26.9722">
			<stop  offset="3.155340e-02" style="stop-color:#07A6BA"/>
			<stop  offset="0.438" style="stop-color:#21A874;stop-opacity:0.8577"/>
			<stop  offset="0.7376" style="stop-color:#32A947;stop-opacity:0.7528"/>
			<stop  offset="0.8883" style="stop-color:#39A936;stop-opacity:0.7"/>
		</linearGradient>
		
			<path id="Verlauf_x5F_02_00000104700676742587773830000006539858146963399359_" style="opacity:0.46;fill:url(#Verlauf_x5F_02_00000068645783328393213250000010072828881060829098_);" d="
			M100.4,16.7C78-5.6,41.6-5.6,19.2,16.7c0,0,0,0,0,0l0.1,0l0,0l-0.1,0c-25.7,25.6-25.7,66.9,0,92.5c1.6,1.6,3.3,3.1,5,4.5
			c0.4,0.3,0.9,0.6,1.3,0.9c1.3,1,2.7,2,4,2.9c0.8,0.5,1.6,0.9,2.4,1.4c1.1,0.6,2.1,1.3,3.2,1.9c1.2,0.6,2.5,1.2,3.7,1.7
			c0.7,0.3,1.4,0.7,2.1,1c1.4,0.6,2.9,1.1,4.4,1.5c0.5,0.2,1.1,0.4,1.6,0.6c1.8,0.5,3.6,0.9,5.4,1.3c0.3,0.1,0.5,0.1,0.8,0.2
			c1.8,0.4,3.7,0.6,5.5,0.8c0.3,0,0.5,0.1,0.8,0.1c18.9,1.8,38.4-4.5,52.9-18.9l-11.9-11.8C122.8,75.1,122.8,39,100.4,16.7z
			 M90.8,87.8L65.8,63L40,88.6c-0.4-0.4-0.8-0.7-1.2-1.1c-14.3-14.2-14.5-37.3-0.4-51.7v0c0.1-0.1,0.3-0.3,0.4-0.4
			C53.2,21,76.7,21,91.1,35.4c14.5,14.4,14.5,37.7,0,52.1C91,87.6,90.9,87.7,90.8,87.8z"/>
		<defs>
			<filter id="Adobe_OpacityMaskFilter" filterUnits="userSpaceOnUse" x="-0.1" y="0" width="117.3" height="128.4">
				<feFlood  style="flood-color:white;flood-opacity:1" result="back"/>
				<feBlend  in="SourceGraphic" in2="back" mode="normal"/>
			</filter>
		</defs>
		
			<mask maskUnits="userSpaceOnUse" x="-0.1" y="0" width="117.3" height="128.4" id="Verlauf_x5F_01_00000157274841522978927720000015400104257384639931_">
			<g class="st3">
				<radialGradient id="SVGID_1_" cx="36.2441" cy="60.9932" r="91.0363" gradientUnits="userSpaceOnUse">
					<stop  offset="0" style="stop-color:#FFFFFF"/>
					<stop  offset="2.168864e-03" style="stop-color:#FEFEFE"/>
					<stop  offset="0.1384" style="stop-color:#B9B9B8"/>
					<stop  offset="0.261" style="stop-color:#828281"/>
					<stop  offset="0.366" style="stop-color:#5A5A59"/>
					<stop  offset="0.4491" style="stop-color:#424241"/>
					<stop  offset="0.5" style="stop-color:#393938"/>
				</radialGradient>
				<path class="st4" d="M100.4,16.7C78-5.6,41.6-5.6,19.2,16.7c0,0,0,0,0,0l0,0l0,0l0,0c-25.7,25.6-25.7,66.9,0,92.5
					c1.6,1.6,3.3,3.1,5,4.5c0.4,0.3,0.9,0.6,1.3,0.9c1.3,1,2.7,2,4,2.9c0.8,0.5,1.6,0.9,2.4,1.4c1.1,0.6,2.1,1.3,3.2,1.9
					c1.2,0.6,2.5,1.2,3.7,1.7c0.7,0.3,1.4,0.7,2.1,1c1.4,0.6,2.9,1.1,4.4,1.5c0.5,0.2,1.1,0.4,1.6,0.6c1.8,0.5,3.6,0.9,5.4,1.3
					c0.3,0.1,0.5,0.1,0.8,0.2c1.8,0.4,3.7,0.6,5.5,0.8c0.3,0,0.5,0.1,0.8,0.1c18.9,1.8,38.4-4.5,52.9-18.9l-11.9-11.8
					C122.8,75.1,122.8,39,100.4,16.7z M90.8,87.8L65.8,63L40,88.6c-0.4-0.4-0.8-0.7-1.2-1.1c-14.3-14.2-14.5-37.3-0.4-51.7l0,0l0,0
					c0.1-0.1,0.3-0.3,0.4-0.4C53.2,21,76.7,21,91.1,35.4c14.5,14.4,14.5,37.7,0,52.1C91,87.6,90.9,87.7,90.8,87.8z"/>
			</g>
		</mask>
		
			<radialGradient id="Verlauf_x5F_01_00000030480506859767609550000009232789879634219926_" cx="58.5545" cy="64.1804" r="78.7893" gradientUnits="userSpaceOnUse">
			<stop  offset="0" style="stop-color:#00A198"/>
			<stop  offset="1" style="stop-color:#FFFFFF"/>
		</radialGradient>
		
			<path id="Verlauf_x5F_01_00000165230310272925427810000013487791582033344947_" style="mask:url(#Verlauf_x5F_01_00000157274841522978927720000015400104257384639931_);fill:url(#Verlauf_x5F_01_00000030480506859767609550000009232789879634219926_);" d="
			M100.4,16.7C78-5.6,41.6-5.6,19.2,16.7c0,0,0,0,0,0l0,0v0l0,0c-25.7,25.6-25.7,66.9,0,92.5c1.6,1.6,3.3,3.1,5,4.5
			c0.4,0.3,0.9,0.6,1.3,0.9c1.3,1,2.7,2,4,2.9c0.8,0.5,1.6,0.9,2.4,1.4c1.1,0.6,2.1,1.3,3.2,1.9c1.2,0.6,2.5,1.2,3.7,1.7
			c0.7,0.3,1.4,0.7,2.1,1c1.4,0.6,2.9,1.1,4.4,1.5c0.5,0.2,1.1,0.4,1.6,0.6c1.8,0.5,3.6,0.9,5.4,1.3c0.3,0.1,0.5,0.1,0.8,0.2
			c1.8,0.4,3.7,0.6,5.5,0.8c0.3,0,0.5,0.1,0.8,0.1c18.9,1.8,38.4-4.5,52.9-18.9l-11.9-11.8C122.8,75.1,122.8,39,100.4,16.7z
			 M90.8,87.8L65.8,63L40,88.6c-0.4-0.4-0.8-0.7-1.2-1.1c-14.3-14.2-14.5-37.3-0.4-51.7l0,0l0,0c0.1-0.1,0.3-0.3,0.4-0.4
			C53.2,21,76.7,21,91.1,35.4c14.5,14.4,14.5,37.7,0,52.1C91,87.6,90.9,87.7,90.8,87.8z"/>
		
			<linearGradient id="Schatten_00000066491990560588083560000000927275645464682390_" gradientUnits="userSpaceOnUse" x1="39.4874" y1="-3.6029" x2="120.4206" y2="77.3304">
			<stop  offset="0.25" style="stop-color:#004550;stop-opacity:0"/>
			<stop  offset="1" style="stop-color:#004550"/>
		</linearGradient>
		
			<path id="Schatten_00000119087080563033303700000009468658317819810460_" style="opacity:0.85;fill:url(#Schatten_00000066491990560588083560000000927275645464682390_);" d="
			M100.4,16.7C78-5.6,41.6-5.6,19.2,16.7l19.2,19.1c0.1-0.1,0.2-0.2,0.3-0.4C53.2,21,76.7,21,91.1,35.4c14.5,14.4,14.5,37.7,0,52.1
			c-0.1,0.1-0.2,0.2-0.4,0.3l9.6,9.5C122.8,75.1,122.8,39,100.4,16.7z"/>
	</g>
	<g>
		<path class="st7" d="M176,162.3h-1.9c-0.5,0-0.7-0.2-0.7-0.8v-19.3c0-0.4,0-0.9,0.2-1.2c0.2-0.4,0.6-0.7,1-0.9
			c1.2-0.6,4-1.1,6.3-1.1c4.5,0,6.5,1.8,6.5,7.9c0,6.9-2.5,8.5-7.6,8.5c-1,0-2.3-0.2-3-0.5v6.6C176.9,162.1,176.6,162.3,176,162.3z
			 M177.4,152.1c0.5,0.2,1.4,0.3,2.2,0.3c3.5,0,4.4-1.2,4.4-5.5c0-3.5-0.7-5-3.4-5c-1,0-2.3,0.2-3.1,0.5c-0.2,0.1-0.4,0.3-0.5,0.5
			c-0.1,0.2-0.1,0.5-0.1,0.8v7.3C176.9,151.7,177,152,177.4,152.1z"/>
		<path class="st7" d="M197.7,155.4c-4.8,0-7.1-1.6-7.1-8.2c0-6.8,3.1-8.2,7.3-8.2c4.8,0,7.1,1.1,7.1,8.1
			C205,153.7,202.7,155.4,197.7,155.4z M197.8,142c-2.5,0-3.7,0.9-3.7,5.1c0,4.5,1,5.4,3.6,5.4c2.6,0,3.8-0.7,3.8-5.2
			C201.5,142.9,200.6,142,197.8,142z"/>
		<path class="st7" d="M215.6,153.6c-0.4,1.3-1,1.6-2.2,1.6h-0.6c-1.1,0-1.7-0.3-2.1-1.5l-3.4-12.6c-0.1-0.4-0.2-0.7-0.2-0.9
			c0-0.3,0.2-0.6,0.6-0.7c0.6-0.1,1.9-0.1,2.3-0.1c0.4,0,0.7,0.2,0.8,0.8c1.8,7.1,2.3,9.3,2.7,11.5c0.5-2.1,0.9-3.8,2.8-9.9
			c0.4-1.2,0.8-1.7,1.8-1.7h0.5c1.1,0,1.5,0.4,1.9,1.6c2.1,6.2,2.5,7.8,3.1,10c0.4-2.2,0.9-4.5,2.5-11.4c0.2-0.6,0.3-0.9,0.8-0.9
			c0.4,0,1.6,0,2.2,0.1c0.4,0.1,0.5,0.3,0.5,0.6c0,0.2-0.1,0.5-0.2,0.9l-3.2,12.6c-0.3,1.1-0.9,1.6-2.2,1.6h-0.6
			c-1.2,0-1.8-0.5-2.1-1.6c-2.4-7.5-2.6-8.4-3-9.7C218.2,145.1,218,146,215.6,153.6z"/>
		<path class="st7" d="M239.8,152.5c1.6,0,2.6-0.2,3.6-0.4c0.3-0.1,0.6-0.2,0.9-0.2c0.3,0,0.5,0.2,0.6,0.4c0.2,0.4,0.3,1.2,0.3,1.6
			c0,0.3-0.1,0.5-0.5,0.7c-1.4,0.6-3.5,0.8-5.3,0.8c-5.5,0-7.4-2.5-7.4-8.1c0-6,2.5-8.3,7.3-8.3c5.8,0,6.2,3.3,6.2,8.1
			c0,0.5-0.1,0.8-0.3,1c-0.2,0.1-0.4,0.2-0.7,0.2h-9C235.5,151.8,237.1,152.5,239.8,152.5z M242.2,145.7c0-0.2,0-0.4,0-0.7
			c0-2.1-0.6-3.3-3.1-3.3c-2.6,0-3.5,1.4-3.6,3.9H242.2z"/>
		<path class="st7" d="M252,155.1h-2c-0.5,0-0.7-0.3-0.7-0.8v-11.8c0-1.1,0.2-1.4,0.8-1.9c0.9-0.7,3.7-1.5,6-1.5
			c0.9,0,1.5,0.1,1.8,0.2c0.3,0.1,0.5,0.3,0.5,0.7c0,0.4-0.1,1.3-0.2,1.8c-0.1,0.3-0.3,0.5-0.7,0.5c-0.3,0-1.2-0.1-1.7-0.1
			c-1,0-2,0.2-2.6,0.5c-0.2,0.1-0.4,0.2-0.5,0.4c-0.1,0.2-0.1,0.4-0.1,0.9v10.4C252.7,154.8,252.5,155.1,252,155.1z"/>
		<path class="st7" d="M267.8,152.5c1.6,0,2.6-0.2,3.6-0.4c0.3-0.1,0.6-0.2,0.9-0.2c0.3,0,0.5,0.2,0.6,0.4c0.2,0.4,0.3,1.2,0.3,1.6
			c0,0.3-0.1,0.5-0.5,0.7c-1.4,0.6-3.5,0.8-5.3,0.8c-5.5,0-7.4-2.5-7.4-8.1c0-6,2.5-8.3,7.3-8.3c5.8,0,6.2,3.3,6.2,8.1
			c0,0.5-0.1,0.8-0.3,1c-0.2,0.1-0.4,0.2-0.7,0.2h-9C263.6,151.8,265.2,152.5,267.8,152.5z M270.2,145.7c0-0.2,0-0.4,0-0.7
			c0-2.1-0.6-3.3-3.1-3.3c-2.6,0-3.5,1.4-3.6,3.9H270.2z"/>
		<path class="st7" d="M290.4,153.6c-0.2,0.4-0.6,0.7-1.1,0.9c-1.2,0.6-3.8,1-6,1c-4.7,0-6.8-1.8-6.8-7.9c0-6.7,2.5-8.5,7.5-8.5
			c1,0,2.3,0.1,3,0.4v-6.9c0-0.6,0.3-0.8,0.8-0.8h1.9c0.5,0,0.7,0.2,0.7,0.8v19.9C290.5,152.9,290.5,153.3,290.4,153.6z
			 M287.1,143.3c0-0.7-0.1-0.8-0.5-1c-0.5-0.2-1.4-0.3-2.3-0.3c-3.5,0-4.3,1.4-4.3,5.5c0,3.5,0.8,5,3.5,5c1.1,0,2.2-0.1,3-0.4
			c0.2-0.1,0.4-0.3,0.5-0.5c0.1-0.2,0.1-0.5,0.1-0.8V143.3z"/>
		<path class="st7" d="M302.4,132.6c0-0.5,0.2-0.9,0.7-0.9h2c0.6,0,0.7,0.3,0.7,0.9v7.7c1.1-0.8,3-1.2,5.1-1.2
			c3.7,0,5.4,2.2,5.4,7.9c0,7-2.6,8.4-7.7,8.4c-1.9,0-3.8-0.2-5-0.7c-0.5-0.2-0.9-0.5-1.1-0.9c-0.1-0.3-0.2-0.7-0.2-1.2V132.6z
			 M306,151.9c0.1,0.2,0.3,0.3,0.7,0.4c0.6,0.2,1.5,0.2,2.1,0.2c3.5,0,4.2-1.3,4.2-5.3c0-3.6-0.4-5.2-3.2-5.2
			c-1.1,0-2.6,0.2-3.4,0.7c-0.2,0.1-0.3,0.2-0.4,0.4c-0.1,0.2-0.1,0.4-0.1,0.7v7.4C305.9,151.5,305.9,151.8,306,151.9z"/>
		<path class="st7" d="M320.4,140.2c0-0.5,0.2-0.8,0.7-0.8h2c0.5,0,0.7,0.3,0.7,0.8v9.4c0,0.7,0,1.4,0.2,1.8c0.2,0.7,0.9,1,2.4,1
			c1.7,0,2.6-0.3,3.1-0.5c0.2-0.1,0.4-0.2,0.6-0.4c0.2-0.2,0.2-0.4,0.2-0.8v-10.5c0-0.5,0.2-0.8,0.7-0.8h2c0.5,0,0.7,0.3,0.7,0.8
			v13.9c0,1.5-0.1,2.7-0.4,3.9c-0.9,3.2-4.3,4.3-10.3,4.3c-0.6,0-0.9-0.1-1-0.6c-0.1-0.5-0.1-1.1-0.1-1.4c0-0.5,0.2-0.9,0.8-0.9
			c5.4-0.2,6.7-0.9,7.2-2.1c0.2-0.6,0.3-1.4,0.3-2.1v-0.7c-1.3,0.7-3.4,1-5,1c-2.9,0-4.1-0.7-4.6-2c-0.3-0.8-0.3-1.8-0.3-3.1V140.2z
			"/>
		<path class="st7" d="M346.8,154.1c-0.2,0.7-0.4,1-0.9,1c-0.5,0-2.2,0-2.5-0.1c-0.3-0.1-0.4-0.3-0.4-0.6c0-0.3,0.1-0.6,0.2-0.9
			l6.4-18.3c0.5-1.6,1-2.3,2.8-2.3h0.8c1.7,0,2,0.7,2.5,2.2l6.3,18.3c0.1,0.3,0.2,0.7,0.2,1c0,0.2-0.1,0.5-0.4,0.6
			c-0.3,0.1-1.8,0.1-2.5,0.1c-0.6,0-0.8-0.3-1-1l-1.8-5.2h-8L346.8,154.1z M355.7,145.8c-1.9-5.9-2.5-7.8-3.1-9.8
			c-0.6,2-1.2,3.9-3.1,9.8H355.7z"/>
		<path class="st7" d="M368.2,155.1h-2.1c-0.5,0-0.7-0.3-0.7-0.8v-18.6c0-1.5,0.4-2.7,2.6-2.7h0.8c1.8,0,2,0.6,2.9,2.8
			c2.7,6.6,3.4,8.3,4.1,10.3c0.7-2.1,1.3-3.6,4.1-10.3c0.7-1.9,1.1-2.8,3-2.8h0.9c2.1,0,2.3,1,2.3,2.7v18.5c0,0.7-0.3,0.9-0.8,0.9
			h-2.1c-0.5,0-0.7-0.3-0.7-0.9c0-11.7,0-14.3,0.1-17.6c-0.8,2.3-1.6,4.4-5,12.7c-0.4,1.1-0.7,1.6-1.7,1.6h-0.5
			c-0.9,0-1.3-0.4-1.7-1.5c-3.3-8.2-4.1-10.2-5-12.8c0.1,3.4,0.1,6.1,0.1,17.7C368.9,154.7,368.7,155.1,368.2,155.1z"/>
		<path class="st7" d="M400.2,152.4c2.1,0,3.2-0.2,4.4-0.6c0.4-0.1,0.8-0.2,1-0.2c0.2,0,0.4,0.1,0.6,0.4c0.2,0.5,0.3,1.2,0.3,1.7
			c0,0.3-0.2,0.6-0.7,0.8c-2,0.7-4.1,0.9-6.5,0.9c-5.5,0-8.6-2.6-8.6-11.1c0-8.2,2.3-11.7,9.4-11.7c2,0,3.9,0.2,5.2,0.5
			c0.5,0.1,0.8,0.4,0.8,0.8c0,0.3-0.2,1.3-0.4,1.9c-0.1,0.2-0.3,0.4-0.6,0.4c-0.2,0-0.6-0.1-1-0.2c-0.9-0.2-2-0.3-3.7-0.3
			c-5,0-6,2.8-6,8.2C394.4,149.4,395.5,152.4,400.2,152.4z"/>
		<path class="st7" d="M424,148.8c0,4.1-2,6.7-8,6.7c-2.1,0-4.5-0.3-6.4-0.9c-0.5-0.2-0.7-0.4-0.7-0.8c0-0.4,0.2-1.1,0.3-1.6
			c0.2-0.5,0.4-0.7,0.9-0.7c0.2,0,0.7,0.2,1,0.2c1.5,0.5,3.1,0.7,4.9,0.7c3.8,0,4.3-1.7,4.3-3.2c0-1.5-0.3-2.4-3.4-3.2l-2.8-0.7
			c-3.2-0.8-4.8-2.7-4.8-6.1c0-4,2.1-6.5,7.8-6.5c1.7,0,3.9,0.2,5.5,0.7c0.4,0.1,0.7,0.4,0.7,0.8c0,0.3-0.1,0.9-0.3,1.6
			c-0.1,0.4-0.3,0.6-0.7,0.6c-0.3,0-0.7-0.1-1-0.2c-1.7-0.3-3.2-0.4-4.4-0.4c-3.2,0-3.9,1.3-3.9,3.1c0,1.3,0.4,2.4,3.1,3.1l2.7,0.7
			C422.7,143.8,424,145.1,424,148.8z"/>
	</g>
</g>
</svg>
